<?xml version="1.0" standalone="no"?>
<!DOCTYPE svg PUBLIC "-//W3C//DTD SVG 20010904//EN"
 "http://www.w3.org/TR/2001/REC-SVG-20010904/DTD/svg10.dtd">
<svg version="1.0" xmlns="http://www.w3.org/2000/svg"
 width="1024.000000pt" height="1024.000000pt" viewBox="0 0 1024.000000 1024.000000"
 preserveAspectRatio="xMidYMid meet">

<g transform="translate(0.000000,1024.000000) scale(0.100000,-0.100000)"
fill="#000000" stroke="none">
<path d="M4790 8006 c-514 -74 -977 -353 -1272 -767 -238 -332 -373 -785 -354
-1184 39 -842 638 -1576 1451 -1778 185 -46 238 -52 485 -52 216 1 245 3 361
28 804 171 1410 813 1524 1615 23 164 16 479 -14 627 -27 130 -87 318 -113
351 -18 22 -27 25 -56 20 -43 -6 -138 -68 -146 -94 -4 -10 5 -48 18 -84 122
-324 127 -722 14 -1078 -83 -260 -233 -498 -439 -695 -120 -115 -287 -234
-309 -220 -6 4 -9 1 -8 -6 6 -28 -241 -137 -416 -184 -86 -23 -236 -48 -363
-59 l-63 -6 0 738 0 739 -23 21 c-22 21 -32 22 -230 22 -194 0 -208 -1 -227
-20 -20 -20 -20 -33 -20 -720 0 -385 -3 -700 -7 -700 -5 1 -39 13 -78 28 l-70
28 -5 391 c-5 392 -5 393 -28 415 -21 22 -31 23 -205 26 -202 4 -247 -4 -265
-43 -16 -35 -17 -431 -1 -441 8 -4 10 58 8 215 -3 184 -1 223 11 236 12 11 55
15 225 16 205 1 210 1 227 -21 17 -20 18 -52 18 -401 0 -208 -4 -379 -8 -379
-17 0 -186 92 -255 139 -385 260 -639 630 -727 1060 -91 445 -4 883 251 1267
97 146 302 352 444 447 287 190 580 278 925 278 317 0 566 -57 831 -192 64
-32 123 -59 133 -59 23 0 98 72 122 116 l19 36 -33 27 c-78 66 -322 180 -495
231 -184 55 -301 72 -532 76 -142 2 -241 -1 -305 -10z m270 -2076 c20 -20 20
-33 20 -752 l0 -731 -107 7 c-100 6 -228 27 -330 55 l-43 12 0 696 c0 634 1
698 17 715 15 16 35 18 220 18 190 0 204 -1 223 -20z"/>
<path d="M6815 7705 c-49 -13 -188 -46 -307 -75 -258 -61 -254 -58 -153 -160
l65 -66 -442 -434 -441 -435 -58 -8 -59 -7 -140 96 c-108 73 -140 100 -140
117 0 39 -46 121 -87 158 -52 47 -99 62 -183 57 -53 -3 -78 -10 -116 -34 -62
-38 -110 -115 -120 -190 l-6 -55 -295 -272 -294 -272 -45 3 c-75 5 -150 -23
-203 -76 -157 -158 -41 -422 184 -422 77 0 130 24 181 83 45 51 64 102 64 170
l0 46 290 270 c288 268 290 270 322 260 45 -12 86 -11 132 6 l39 14 134 -91
c110 -76 133 -96 133 -116 0 -82 59 -166 141 -202 115 -49 250 -9 314 94 26
42 30 60 32 124 l2 75 83 84 c46 47 240 238 431 425 l348 341 79 -78 c51 -51
83 -76 93 -72 9 3 20 30 27 64 6 32 36 174 67 316 44 207 53 260 43 272 -7 8
-15 15 -19 14 -3 0 -46 -11 -96 -24z"/>
<path d="M5985 6310 c-12 -4 -26 -14 -32 -21 -13 -16 -23 -1569 -10 -1569 4 0
7 348 7 773 0 424 4 777 8 784 16 26 69 33 242 33 160 0 180 -2 201 -19 l24
-19 5 -569 5 -568 3 558 c2 603 2 607 -50 621 -34 9 -380 6 -403 -4z"/>
<path d="M5277 5692 c-16 -17 -17 -73 -15 -623 l3 -604 5 608 c4 525 7 609 20
617 8 5 108 10 221 10 180 0 208 -2 220 -17 11 -13 15 -118 19 -552 l5 -536 3
538 c2 525 2 537 -18 557 -19 19 -33 20 -233 20 -195 0 -215 -2 -230 -18z"/>
<path d="M2844 3616 c-64 -28 -97 -104 -75 -176 31 -103 168 -131 246 -50 23
24 30 41 33 88 4 52 1 61 -23 90 -50 60 -114 77 -181 48z"/>
<path d="M7980 2930 l0 -670 125 0 125 0 0 153 0 153 54 53 c30 29 58 51 63
48 5 -3 69 -96 143 -206 l133 -201 143 0 c79 0 144 2 144 5 0 3 -89 133 -198
288 l-198 283 183 194 183 195 -138 3 -137 3 -187 -193 -187 -193 -1 378 0
377 -125 0 -125 0 0 -670z"/>
<path d="M1570 2900 l0 -642 343 5 c281 4 353 8 401 22 133 38 218 103 264
204 21 45 26 71 26 136 1 131 -46 210 -162 273 l-52 29 44 32 c83 59 117 132
117 248 0 150 -82 249 -254 306 -56 19 -92 21 -394 25 l-333 4 0 -642z m644
395 c58 -29 80 -65 79 -126 -1 -64 -23 -96 -88 -128 -45 -23 -63 -25 -222 -29
l-173 -5 0 158 0 157 183 -4 c158 -3 187 -6 221 -23z m40 -515 c68 -34 91 -68
91 -134 -1 -66 -31 -111 -94 -139 -40 -18 -71 -21 -243 -25 l-198 -4 0 167 0
167 198 -4 c186 -3 200 -5 246 -28z"/>
<path d="M4122 3430 l-1 -110 209 0 210 0 0 -530 0 -531 125 3 126 3 -1 528 0
527 210 0 210 0 0 110 0 110 -544 0 -543 0 -1 -110z"/>
<path d="M6181 3230 c-74 -20 -187 -76 -211 -105 -14 -17 -16 -13 58 -102 l44
-52 37 18 c74 38 150 54 236 49 136 -9 177 -42 183 -149 l4 -70 -108 7 c-121
7 -262 -6 -340 -33 -69 -23 -146 -102 -162 -165 -29 -116 -5 -209 76 -288 72
-71 139 -95 262 -95 112 0 176 22 235 82 l45 45 0 -56 0 -56 120 0 120 0 0
348 c0 383 -4 413 -59 489 -37 52 -104 98 -179 125 -86 30 -263 35 -361 8z
m347 -624 c-7 -114 -80 -175 -209 -176 -52 0 -73 5 -100 23 -63 42 -78 113
-34 165 34 40 76 50 224 51 l123 1 -4 -64z"/>
<path d="M7321 3235 c-191 -43 -320 -163 -366 -342 -19 -73 -19 -223 0 -296
53 -205 212 -333 435 -352 145 -13 300 42 382 134 45 52 75 104 62 108 -5 2
-49 27 -99 57 l-89 54 -17 -27 c-86 -142 -289 -147 -388 -10 -99 136 -47 386
93 450 107 48 269 -6 292 -98 4 -13 7 -23 8 -23 0 0 47 24 103 53 l102 52 -25
45 c-70 124 -191 194 -353 205 -48 3 -100 -1 -140 -10z"/>
<path d="M5672 3227 c-47 -18 -100 -63 -133 -115 l-29 -46 0 82 0 82 -120 0
-120 0 0 -485 0 -485 125 0 125 0 0 273 c0 291 5 334 50 397 12 17 40 40 63
51 49 25 143 36 186 21 l31 -11 0 125 0 124 -72 -1 c-40 0 -88 -6 -106 -12z"/>
<path d="M2780 2745 l0 -485 125 0 125 0 0 485 0 485 -125 0 -125 0 0 -485z"/>
<path d="M3235 3130 l0 -100 243 0 c133 0 242 -3 242 -7 0 -5 -113 -140 -250
-302 l-250 -295 0 -83 0 -83 410 0 410 0 0 105 0 105 -245 0 c-135 0 -245 3
-245 8 1 4 111 135 245 292 l244 285 1 88 0 87 -402 0 -403 0 0 -100z"/>
</g>
</svg>
